<?xml version="1.0" encoding="utf-8"?>
<!-- Generator: Adobe Illustrator 23.0.0, SVG Export Plug-In . SVG Version: 6.00 Build 0)  -->
<svg version="1.1" id="Layer_1" xmlns="http://www.w3.org/2000/svg" xmlns:xlink="http://www.w3.org/1999/xlink" x="0px" y="0px"
	 viewBox="0 0 192.15 42.37" style="enable-background:new 0 0 192.15 42.37;" xml:space="preserve">
<style type="text/css">
	.st0{fill-rule:evenodd;clip-rule:evenodd;fill:#FFFFFF;}
</style>
<g>
	<polygon class="st0" points="65.42,36.12 70.97,13.93 64.33,13.93 58.78,36.12 65.42,36.12 65.42,36.12 	"/>
	<polygon class="st0" points="96.13,36.09 100.34,19.12 93.89,19.12 89.72,36.09 96.13,36.09 96.13,36.09 	"/>
	<polygon class="st0" points="107.77,31.02 109.48,26.95 110.23,25.86 111.35,24.71 112.6,23.86 113.79,23.49 115.23,23.66 
		116.15,18.89 114.44,18.79 112.83,19.02 111.45,19.58 110.4,20.34 109.68,21.06 110.1,19.19 104.48,19.19 100.34,36.12 
		106.26,36.12 107.77,31.02 107.77,31.02 	"/>
	<polygon class="st0" points="145.4,23.26 146.29,23.13 146.65,23.23 146.61,23.76 143.59,36.25 149.71,36.25 152.34,25.34 
		152.73,23.63 152.83,22.21 152.73,21.29 152.47,20.57 152.11,19.98 151.61,19.52 150.4,18.96 149.11,18.82 146.65,19.02 
		144.87,19.58 143.65,20.34 142.83,21.16 143.26,19.25 137.44,19.25 133.23,36.19 139.28,36.19 140.2,32.67 141.32,29.28 
		142.57,26.42 143.72,24.68 144.54,23.86 145.4,23.26 145.4,23.26 	"/>
	<path class="st0" d="M132.72,19.55l-1.45-0.36l-1.84-0.33l-2.24-0.13l-3.16,0.33l-1.45,0.43l-1.32,0.56l-2.24,1.45l-1.87,1.84
		l-1.41,2.07l-0.95,2.17l-0.59,2.1l-0.23,2.01l0.36,1.55l0.89,1.51l1.51,1.15l0.95,0.33l1.09,0.13l1.97-0.2l1.38-0.49l2.37-1.48
		l-0.46,1.91h5.59l4.04-16.11L132.72,19.55z M126.02,25.43l-1.05,2.5l-1.38,2.73l-0.79,1.02l-0.66,0.49l-0.79,0.23l-0.62-0.2
		l-0.33-0.39l-0.16-0.66l0.39-2.37l1.18-2.89l0.82-1.38l0.99-1.12l1.09-0.79l1.22-0.26h1.05L126.02,25.43z"/>
	<path class="st0" d="M89.42,21.46l-0.89-1.45l-1.32-0.95l-1.71-0.3l-2.1,0.16l-1.78,0.49l-1.35,0.76l-0.95,0.92l0.33-1.97H73.9
		l-5.62,22.56h6.28l1.25-5.59l1.02,0.16l1.31,0.03l1.48-0.16l2.07-0.53l2.37-1.22l1.18-0.92l1.15-1.18l1.45-2.1l1.02-2.3l0.66-2.27
		l0.2-2.07L89.42,21.46z M83.01,26.29l-1.12,2.89l-0.86,1.35l-0.99,1.18L78.9,32.5l-1.35,0.3l-1.05-0.07l0.76-2.3l0.86-2.01
		l1.68-3.06l0.76-0.99l0.76-0.72l0.76-0.53l0.56-0.2l0.56,0.13l0.23,0.33l0.03,0.82L83.01,26.29z"/>
	<path class="st0" d="M166.33,18.73l-2.79,0.36l-1.32,0.39l-1.25,0.59l-2.24,1.41l-1.91,1.84l-1.55,2.07l-1.12,2.17l-0.72,2.14
		l-0.23,2.01l0.33,1.55l0.99,1.51l1.51,1.15l0.92,0.33l1.05,0.13l1.41-0.1l1.12-0.26l2.3-1.25l-0.43,1.35l-0.33,0.95l-0.46,0.76
		l-0.59,0.56l-0.76,0.39l-2.01,0.2l-2.76-0.39l-0.99,3.22l2.01,0.39l2.01,0.16l2.27-0.03l2.43-0.49l2.24-1.05l0.99-0.85l0.89-1.02
		l0.72-1.28l0.49-1.55l4.67-17.36H166.33z M165.25,25.6l-1.09,2.53l-0.89,1.74l-0.56,0.82l-0.99,0.86l-0.82,0.46l-0.72,0.2
		l-0.46-0.23l-0.26-0.79l0.39-2.37l1.15-2.89l0.86-1.38l0.95-1.12l1.12-0.79l1.22-0.26h1.05L165.25,25.6z"/>
	<path class="st0" d="M191.2,19.55l-1.45-0.36l-1.84-0.33l-2.24-0.13l-3.16,0.33l-1.45,0.43l-1.28,0.56l-2.27,1.45l-1.87,1.84
		l-1.38,2.07l-0.99,2.17l-0.59,2.1l-0.2,2.01l0.33,1.55l0.99,1.48l1.51,1.18l2.01,0.46l1.97-0.16l1.38-0.53l2.3-1.48l-0.46,1.91
		h5.59l4.04-16.11L191.2,19.55z M184.46,25.43l-1.02,2.5l-1.41,2.73l-0.79,1.02l-0.66,0.49l-0.76,0.23l-0.66-0.2l-0.33-0.39
		l-0.16-0.66l0.39-2.37l1.18-2.89l0.82-1.38l0.99-1.12l1.09-0.79l1.22-0.26h1.09L184.46,25.43z"/>
</g>
<path class="st0" d="M22.01,0C13.94,0,7.17,5.4,5.35,13.25L0,36.35h13.42l15-22.1h7.17l-5.66,22.5l1.73-0.26
	c5.85-0.9,10.29-4.95,11.71-10.67L49.76,0H22.01z M32.37,11.03L29.2,3.17h11.07L32.37,11.03z"/>
</svg>
